<svg xmlns="http://www.w3.org/2000/svg" width="40" height="40">
    <linearGradient id="SVGID_1_" gradientUnits="userSpaceOnUse" x1="7.367" y1="4.367" x2="35.723" y2="32.723">
        <stop offset="0" stop-color="#b155ba" />
        <stop offset="1" stop-color="#69299a" />
    </linearGradient>
    <circle cx="20" cy="17" r="5" fill="url(#SVGID_1_)" />
    <linearGradient id="SVGID_2_" gradientUnits="userSpaceOnUse" x1="2.436" y1="9.299" x2="30.791" y2="37.654">
        <stop offset="0" stop-color="#b155ba" />
        <stop offset="1" stop-color="#69299a" />
    </linearGradient>
    <path d="M24 24h-8c-1.7 0-3 1.3-3 3v1h14v-1c0-1.7-1.3-3-3-3z" fill="url(#SVGID_2_)" />
    <linearGradient id="SVGID_3_" gradientUnits="userSpaceOnUse" x1="5.858" y1="5.858" x2="34.213" y2="34.213">
        <stop offset="0" stop-color="#b155ba" />
        <stop offset="1" stop-color="#69299a" />
    </linearGradient>
    <path d="M34.1 5.9C26.3-2 13.7-2 5.9 5.9-2 13.7-2 26.3 5.9 34.1c7.8 7.8 20.5 7.8 28.3 0 7.8-7.8 7.8-20.4-.1-28.2zM29 29c0 .6-.4 1-1 1H12c-.6 0-1-.4-1-1v-2c0-2.5 1.8-4.5 4.2-4.9C13.8 20.8 13 19 13 17c0-3.9 3.1-7 7-7s7 3.1 7 7c0 2-.8 3.8-2.2 5.1 2.4.4 4.2 2.4 4.2 4.9v2z"
        fill="url(#SVGID_3_)" />
</svg>
